# xmcd
#
# Track frame offsets: 
#        150
#        19758
#        34526
#        50332
#        81284
#        95745
#        109012
#        130728
#        147712
#        174128
#        200664
#        221558
#
# Disc length: 3294 seconds
#
# Revision: 0
# Processed by: cddbd v1.5.2PL0 Copyright (c) Steve Scherf et al.
# Submitted via: ExactAudioCopy v0.99pb3
#
DISCID=a60cdc0c
DTITLE=Alabama Slim - Blue and Lonesome
DYEAR=2010
DGENRE=Blues
TTITLE0=Fannie Mae
TTITLE1=Someday Baby
TTITLE2=Old Folks Boogie
TTITLE3=Weather Done Got Cloudy
TTITLE4=Ain't I Been Good To You
TTITLE5=Someday You Gonna Be Cryin
TTITLE6=West Texas Blues
TTITLE7=Two O'Clock In The Morning
TTITLE8=You Got This Ball Rollin
TTITLE9=Has Anybody Seen My Baby
TTITLE10=I Love My Guitar
TTITLE11=I'm Blue And Lonesome
EXTD=
EXTT0=
EXTT1=
EXTT2=
EXTT3=
EXTT4=
EXTT5=
EXTT6=
EXTT7=
EXTT8=
EXTT9=
EXTT10=
EXTT11=
PLAYORDER=
